<svg xmlns="http://www.w3.org/2000/svg">
<defs>
<font id="KingthingsOrganica" horiz-adv-x="1125" >
  <font-face 
    font-family="Kingthings Organica"
    font-weight="400"
    font-stretch="normal"
    units-per-em="2048"
    panose-1="2 0 0 0 0 0 0 0 0 0"
    ascent="1638"
    descent="-410"
    x-height="999"
    cap-height="1298"
    bbox="-215.031 -403.063 1832.09 1654.04"
    underline-thickness="48"
    underline-position="-188"
    unicode-range="U+0020-2122"
  />
<missing-glyph horiz-adv-x="1118" 
d="M63 0v1280h1024v-1280h-1024zM95 32h960v1216h-960v-1216zM132 911l3 -62q1 -26 6 -44q5 -16 5 -34l4 -12q5 -17 5 -34q2 -4 0 -10q4 -1 4 -5l4 -11l6 -61l8 -16l4 -9l7 -4l4 -11l7 -4l-3 -8l26 -59q15 -16 19 -35q4 -4 4 -9l7 -4l8 -23q21 -26 29 -51l1 -13
q5 -20 12 -31l-3 -11q7 -16 5 -38l3 -49q-6 -161 -78 -123q-43 56 -21 137q-16 4 -30 -2q-9 -19 -19 -31q-8 -199 122 -143q69 78 66 159q131 -6 73 221q9 20 15 32q57 -19 28 -141q1 -26 12 -38q44 20 35 113q132 -45 119 107q132 -6 140 152q27 -2 47 19l16 -252
q-5 -25 -5 -41l-6 -9q-9 -47 -36 -81q-12 -26 -22 -42q-174 -203 -195 -2q18 28 21 52q-19 4 -37 -8q-17 -25 -25 -47l4 -77q98 -142 250 53l7 6l15 26l7 10l37 64q10 36 20 58l3 24l-1 10q3 16 2 27l-1 19l-1 26l-1 10l-2 42q-9 37 -7 67v13l-1 13v9l-3 59l-3 42v13l-3 55
l-1 10l-2 38q-46 4 -38 -48l-2 -14l-7 -66q-21 -74 -21 75l-10 6l-3 -2l3 2l-3 -2l-17 -6l-9 -17v-10q1 -19 -1 -34q-2 -26 -8 -46q0 -46 -7 -65q1 -35 -10 -64q-33 -36 -66 -23q116 131 36 213q-86 5 -104 -144q-15 75 -71 17l-13 -24l-6 -13q-2 -17 -2 -27l-3 -11
q0 -25 -7 -46q-10 -10 -20 -8q-27 1 -46 -22q-21 4 -40 -9l-13 -22q-3 -19 -8 -30q-15 -35 -21 -61l-9 43l-7 10l-11 13l-22 47l-7 10l-1 10q-12 8 -14 17l-4 9q-6 14 -11 22q-9 39 -30 60l-5 15v16l-4 12l-1 16l-5 22l-4 18v9l-6 35l-3 8l-1 13l-4 5v10l-1 10q-5 10 -4 24
l-1 10l-2 42q16 48 50 76q1 -1 7 -4l-3 2l3 -2l4 -5l7 -10l4 -5l5 -38q6 -22 5 -40l3 -56l-2 -30q17 -4 31 2l12 22q9 151 -55 209q-17 -3 -29 -8l-7 -3q-57 -51 -75 -116zM967 1186l1 -17l-6 -15l1 -10q-4 -24 -2 -40l-6 -12l-2 -15v-16l-8 -36l1 -10l-2 -24l-3 -8v-10

<glyph glyph-name=".notdef" horiz-adv-x="1118" 
d="M63 0v1280h1024v-1280h-1024zM95 32h960v1216h-960v-1216zM132 911l3 -62q1 -26 6 -44q5 -16 5 -34l4 -12q5 -17 5 -34q2 -4 0 -10q4 -1 4 -5l4 -11l6 -61l8 -16l4 -9l7 -4l4 -11l7 -4l-3 -8l26 -59q15 -16 19 -35q4 -4 4 -9l7 -4l8 -23q21 -26 29 -51l1 -13
q5 -20 12 -31l-3 -11q7 -16 5 -38l3 -49q-6 -161 -78 -123q-43 56 -21 137q-16 4 -30 -2q-9 -19 -19 -31q-8 -199 122 -143q69 78 66 159q131 -6 73 221q9 20 15 32q57 -19 28 -141q1 -26 12 -38q44 20 35 113q132 -45 119 107q132 -6 140 152q27 -2 47 19l16 -252
q-5 -25 -5 -41l-6 -9q-9 -47 -36 -81q-12 -26 -22 -42q-174 -203 -195 -2q18 28 21 52q-19 4 -37 -8q-17 -25 -25 -47l4 -77q98 -142 250 53l7 6l15 26l7 10l37 64q10 36 20 58l3 24l-1 10q3 16 2 27l-1 19l-1 26l-1 10l-2 42q-9 37 -7 67v13l-1 13v9l-3 59l-3 42v13l-3 55
l-1 10l-2 38q-46 4 -38 -48l-2 -14l-7 -66q-21 -74 -21 75l-10 6l-3 -2l3 2l-3 -2l-17 -6l-9 -17v-10q1 -19 -1 -34q-2 -26 -8 -46q0 -46 -7 -65q1 -35 -10 -64q-33 -36 -66 -23q116 131 36 213q-86 5 -104 -144q-15 75 -71 17l-13 -24l-6 -13q-2 -17 -2 -27l-3 -11
q0 -25 -7 -46q-10 -10 -20 -8q-27 1 -46 -22q-21 4 -40 -9l-13 -22q-3 -19 -8 -30q-15 -35 -21 -61l-9 43l-7 10l-11 13l-22 47l-7 10l-1 10q-12 8 -14 17l-4 9q-6 14 -11 22q-9 39 -30 60l-5 15v16l-4 12l-1 16l-5 22l-4 18v9l-6 35l-3 8l-1 13l-4 5v10l-1 10q-5 10 -4 24
l-1 10l-2 42q16 48 50 76q1 -1 7 -4l-3 2l3 -2l4 -5l7 -10l4 -5l5 -38q6 -22 5 -40l3 -56l-2 -30q17 -4 31 2l12 22q9 151 -55 209q-17 -3 -29 -8l-7 -3q-57 -51 -75 -116zM967 1186l1 -17l-6 -15l1 -10q-4 -24 -2 -40l-6 -12l-2 -15v-16l-8 -36l1 -10l-2 -24l-3 -8v-10
l-4 -44v-13l-3 -8l1 -13l-2 -84l10 -15q22 11 33 29l-1 16q-4 34 0 57l4 67l3 8l2 24l-1 13l3 8l7 56l3 11l-1 13l7 9l-1 16l-1 10v9q12 35 7 60q-17 3 -30 -3zM628 633q-7 70 20 134q68 -51 -20 -134zM513 508l-1 23l3 11l3 11l2 24q4 47 13 78q13 -73 -20 -147zM541 489
q28 45 33 86q31 -125 -33 -86zM389 303l-10 -4l-7 10l-1 10v10l-1 9q-6 20 -5 38l3 11l10 64q31 -69 11 -148zM930 602q-9 -63 52 -39q69 56 -9 113l-40 -16q-40 -45 -3 -58zM970 602q-23 4 -18 25q18 -6 18 -25z" />
    <glyph glyph-name=".null" horiz-adv-x="0" 
 />
    <glyph glyph-name="nonmarkingreturn" horiz-adv-x="390" 
 />
    <glyph glyph-name="space" unicode=" " horiz-adv-x="497" 
 />
    <glyph glyph-name="exclam" unicode="!" horiz-adv-x="567" 
d="M36 1297q66 -149 81.5 -419t-4.5 -387.5t-25.5 -157.5t12 -70.5t72.5 -44.5l380 -1q-54 77 -68 193t-12 310.5t28 331t31 178.5t-45 68zM97 -38q16 -123 201 -127q210 -6 218 125q-15 151 -221 142q-195 0 -198 -140z" />
    <glyph glyph-name="quotedbl" unicode="&#x22;" horiz-adv-x="805" 
d="M448 1096q-10 134 -239 118q36 49 170 50q51 97 -78 85q-138 -12 -207 -84.5t-65 -166.5q18 -151 221 -142q195 0 198 140zM788 1096q-10 134 -239 118q36 49 170 50q51 97 -78 85q-138 -12 -207 -84.5t-65 -166.5q18 -151 221 -142q195 0 198 140z" />
    <glyph glyph-name="numbersign" unicode="#" horiz-adv-x="1337" 
d="M537 1190l-241 -1052q-28 -109 54 -132.5t121 90.5l241 1048q31 121 -58 142t-117 -96zM861 1190l-240 -1052q-28 -109 54 -132.5t120 90.5l241 1048q31 121 -58 142t-117 -96zM276 723l926 6q113 -1 116 84.5t-118 94.5l-922 -4q-125 0 -123.5 -91t121.5 -90zM136 389
l943 7q113 -1 116 84t-118 95l-940 -4q-125 0 -123 -91.5t122 -90.5z" />
    <glyph glyph-name="dollar" unicode="$" horiz-adv-x="1100" 
d="M67.5 1031.5q-28.5 -163.5 28.5 -240.5t135 -134.5t229.5 -120t209.5 -131t-17.5 -136t-201.5 -19t-235 163.5q-63 71 -125 49t-63 -113q53 -235 37 -309q105 6 215 -21q580 -151 758 249q96 326 -88 459q-323 140 -411 179t-104 129.5t100 100.5t256 -159
q117 -124 185 0q29 61 1.5 158t-13.5 152q-123 -21 -303.5 19t-372.5 -36t-220.5 -239.5zM501 1565l4 -1816q0 -88 62 -91.5t69 94.5l-3 1811q1 93 -66 91t-66 -89z" />
    <glyph glyph-name="percent" unicode="%" horiz-adv-x="1401" 
d="M815 1297l-364 -1290q-32 -124 61.5 -151t137.5 104l365 1285q35 138 -66.5 161.5t-133.5 -109.5zM88 1092q-58 -147 -25 -339q72 -193 273 -195q229 -1 294 189q29 173 -15 342q-60 225 -265 217q-188 2 -262 -214zM409 1065l2 -307q-11 -77 -69 -81q-62 18 -60 85
l-1 304q4 123 65 128q58 -1 63 -129zM848 522q-58 -147 -25 -339q72 -193 273 -195q229 -1 294 189q29 173 -15 342q-60 225 -265 217q-188 2 -262 -214zM1169 495l2 -307q-11 -77 -69 -81q-62 18 -60 85l-1 304q4 123 65 128q58 -1 63 -129z" />
    <glyph glyph-name="ampersand" unicode="&#x26;" horiz-adv-x="1498" 
d="M336.5 1236q-102.5 -78 -94.5 -240.5t131 -224.5q-239 -115 -287 -294t82.5 -309t285.5 -157.5t300 -10t284 168.5l130 -123q180 -184 408 286q-217 -76 -376 117l78 185l177 1q106 1 103 89.5t-106 83.5h-479q127 45 140 194t-84 228.5t-343.5 81.5t-349 -76zM1101 641
l-47 -110l-125 112zM903 282q-82 -93 -156 -100t-140 14t-87 109t-4.5 166t64.5 136zM741.5 1131.5q62.5 -42.5 59 -141.5t-84.5 -154q-146 68 -151.5 163.5t54.5 135t122.5 -3z" />
    <glyph glyph-name="quotesingle" unicode="'" horiz-adv-x="452" 
d="M19 1218q10 -134 239 -118q-36 -49 -170 -50q-51 -97 78 -85q138 12 207 84.5t65 166.5q-18 151 -221 142q-195 0 -198 -140z" />
    <glyph glyph-name="parenleft" unicode="(" horiz-adv-x="564" 
d="M631.5 1387q3.5 -51 -82.5 -53q-168 -63 -190.5 -244.5t-27 -444t14.5 -538.5t182 -299q89 4 87 -56.5t-106 -37.5q-367 82 -426.5 367t-56.5 550.5t102 504.5t410 286q90 16 93.5 -35z" />
    <glyph glyph-name="parenright" unicode=")" horiz-adv-x="608" 
d="M14.5 1387q-3.5 -51 82.5 -53q168 -63 190.5 -244.5t27 -444t-14.5 -538.5t-182 -299q-89 4 -87 -56.5t106 -37.5q367 82 426.5 367t56.5 550.5t-102 504.5t-410 286q-90 16 -93.5 -35z" />
    <glyph glyph-name="asterisk" unicode="*" horiz-adv-x="734" 
d="M316 1300q-136 164 -203 111t128 -179q-209 28 -207.5 -45.5t211.5 -49.5q-188 -139 -129 -185.5t196 116.5q-24 -236 62 -237t58 241q136 -173 198 -111.5t-130 180.5q221 -33 226 45.5t-224 45.5q190 120 143 171.5t-216 -105.5q17 231 -55.5 231t-57.5 -229z" />
    <glyph glyph-name="plus" unicode="+" horiz-adv-x="1022" 
d="M24.5 680q-1.5 -121 141.5 -130l216 -1v-210q0 -146 121 -147.5t130 141.5v217h226q147 0 147 125t-141 124l-232 -1v203q1 160 -125.5 159.5t-125.5 -161.5l-1 -199l-209 1q-146 0 -147.5 -121z" />
    <glyph glyph-name="comma" unicode="," horiz-adv-x="463" 
d="M22 112q10 -134 239 -118q-36 -49 -170 -50q-51 -97 78 -85q138 12 207 84.5t65 166.5q-18 151 -221 142q-195 0 -198 -140z" />
    <glyph glyph-name="hyphen" unicode="-" horiz-adv-x="825" 
d="M79.5 620q-1.5 -121 141.5 -130h428q160 -1 159.5 125.5t-161.5 125.5h-420q-146 0 -147.5 -121z" />
    <glyph glyph-name="hyphen" unicode="&#x2010;" horiz-adv-x="825" 
d="M79.5 620q-1.5 -121 141.5 -130h428q160 -1 159.5 125.5t-161.5 125.5h-420q-146 0 -147.5 -121z" />
    <glyph glyph-name="period" unicode="." horiz-adv-x="457" 
d="M21 112q16 -123 201 -127q210 -6 218 125q-18 151 -221 142q-195 0 -198 -140z" />
    <glyph glyph-name="slash" unicode="/" horiz-adv-x="588" 
d="M400 1397l-384 -1570q-32 -124 61.5 -151t137.5 104l385 1565q35 138 -66.5 161.5t-133.5 -109.5z" />
    <glyph glyph-name="zero" unicode="0" horiz-adv-x="1122" 
d="M131 934q-102 -264 -43 -606q127 -344 486 -348q409 -2 526 338q52 309 -28 610q-107 402 -472 388q-337 3 -469 -382zM704 885l4 -548q-20 -138 -122 -145q-111 33 -108 153l-1 541q6 221 116 230q103 -3 111 -231z" />
    <glyph glyph-name="one" unicode="1" horiz-adv-x="707" 
d="M387 1299q-102 -134 -223 -122q-116 -4 -122 -73t11.5 -107t78.5 -43h101l-32 -756q-16 -106 2.5 -153t98.5 -46l367 1q-78 286 -78.5 678t35.5 620z" />
    <glyph glyph-name="two" unicode="2" horiz-adv-x="1136" 
d="M324 1281.5q-160 -42.5 -231 -164t-12.5 -206.5t151.5 -85l266 2q-101 125 -53 224t143.5 61.5t73 -174.5t-164.5 -214.5t-259 -165t-168 -168.5t-52 -215.5t76 -199.5q32 39 136 36q630 -54 764 -4q-11 61 63 186.5t56.5 190t-82 71.5t-123 -43t-136 -152t-206.5 -35
q-16 67 37 139.5t132 138.5t182.5 171.5t121 239.5t-42 212.5t-148.5 127.5t-226.5 59t-297.5 -32.5z" />
    <glyph glyph-name="three" unicode="3" horiz-adv-x="1083" 
d="M95 957.5q56 -69.5 125 0.5t124.5 111.5t148.5 45t103 -74.5t-208 -245q-40 -38 -24 -80t64 -46q226 -16 230 -253.5t-87.5 -254.5t-128 123t45.5 293l-276 -1q-117 4 -159.5 -68t-6.5 -225t168 -222.5t290.5 -75t305.5 43t224 174.5t56 319t-308 263l246 318l-76 196
q-114 22 -418.5 4t-407.5 8q-87 -284 -31 -353.5z" />
    <glyph glyph-name="four" unicode="4" horiz-adv-x="1240" 
d="M635 484l-262 -2l222 260q-5 42 -12 193t-64 273l-504 -678l120 -260h472l-16 -136q-4 -102 90 -135l398 1q-82 165 -68 270h132q69 17 66 116.5t-74 100.5l-138 1q-14 425 26 681q28 124 -89 133l-375 -2q104 -290 76 -816z" />
    <glyph glyph-name="five" unicode="5" horiz-adv-x="1129" 
d="M197 1297l-114 -526q4 -74 85 -83q434 22 477.5 -95.5t39.5 -263.5t-105 -150.5t-129.5 139t50.5 257.5l-393 -1q-85 -24 -86.5 -168t92.5 -262.5t280 -146t358 11.5t287 171t76 334t-212.5 276t-421.5 41l48 272q158 47 233.5 -36t140.5 -104.5t100 42t-15.5 159.5
t-26.5 132q-122 30 -377.5 0.5t-386.5 0.5z" />
    <glyph glyph-name="six" unicode="6" 
d="M180 1049q-102 -159 -122 -325.5t5.5 -311.5t119.5 -254t223 -153t300 -22t261.5 118.5t121 221t1.5 264t-149 235.5t-401 50q-29 -93 -25 -225q166 -16 185 -127t0 -214t-102.5 -111.5t-119 117t-18.5 387t86.5 332.5t128 69.5t129.5 -70t115 24.5l40 245
q-64 -30 -244 6q-147 23 -290 -37.5t-245 -219.5z" />
    <glyph glyph-name="seven" unicode="7" horiz-adv-x="1036" 
d="M40 1026q-7 -101 73 -113.5t131 61.5q145 198 316 108q32 -33 0 -111l-294 -693q-47 -133 -37 -197.5t53 -94.5l500 108q-52 105 19 306l196 667q37 147 3 222q-37 48 -426 17t-482 9z" />
    <glyph glyph-name="eight" unicode="8" horiz-adv-x="1142" 
d="M272 1236q-119 -78 -111.5 -240.5t170.5 -224.5l-2 -21q-217 -94 -261 -273t75.5 -309t289.5 -164.5t368 4t293.5 164t56.5 305.5t-274 269v20q195 70 194 227.5t-115 237t-339.5 81.5t-344.5 -76zM668 1131.5q57 -42.5 54 -141.5t-58.5 -133.5t-104 6.5t-53.5 136.5
t50 135t112 -3zM744 474q19 -81 -1.5 -169t-79 -109t-119 0t-79.5 109t-4 166t81 109.5t124.5 3t77.5 -109.5z" />
    <glyph glyph-name="nine" unicode="9" horiz-adv-x="1077" 
d="M72 685q58 -199 349 -191l84 217q-126 42 -58 242t216 163q41 -14 5 -111l-265 -748q-40 -135 -26.5 -199t57.5 -91l494 134q-57 102 3 306l161 677q29 148 -9 221q-75 -36 -316 2.5t-404 -29t-256 -231t-35 -362.5z" />
    <glyph glyph-name="colon" unicode=":" horiz-adv-x="479" 
d="M28 112q16 -123 201 -127q210 -6 218 125q-18 151 -221 142q-195 0 -198 -140zM28 512q16 -123 201 -127q210 -6 218 125q-18 151 -221 142q-195 0 -198 -140z" />
    <glyph glyph-name="semicolon" unicode=";" horiz-adv-x="455" 
d="M18 112q10 -134 239 -118q-36 -49 -170 -50q-51 -97 78 -85q138 12 207 84.5t65 166.5q-18 151 -221 142q-195 0 -198 -140zM18 512q16 -123 201 -127q210 -6 218 125q-18 151 -221 142q-195 0 -198 -140z" />
    <glyph glyph-name="less" unicode="&#x3c;" horiz-adv-x="655" 
d="M570.5 314.5q-84.5 -86.5 -191.5 7.5l-182 181l-177 178l176 175l172 172q112 114 201 24t-25 -203l-169 -170l177 -175q103 -103 18.5 -189.5z" />
    <glyph glyph-name="equal" unicode="=" horiz-adv-x="795" 
d="M40.5 830q-1.5 -121 141.5 -130h428q160 -1 159.5 125.5t-161.5 125.5h-420q-146 0 -147.5 -121zM40.5 530q-1.5 -121 141.5 -130h428q160 -1 159.5 125.5t-161.5 125.5h-420q-146 0 -147.5 -121z" />
    <glyph glyph-name="greater" unicode="&#x3e;" horiz-adv-x="621" 
d="M107.5 314.5q84.5 -86.5 191.5 7.5l182 181l177 178l-176 175l-172 172q-112 114 -201 24t25 -203l169 -170l-177 -175q-103 -103 -18.5 -189.5z" />
    <glyph glyph-name="question" unicode="?" horiz-adv-x="1004" 
d="M56 1133q-43 -105 -36 -174q12 -78 59.5 -92.5t88.5 28.5q291 285 398 188q118 -89 -102.5 -276.5t-239 -327.5t86 -211t285.5 -56.5t242 203.5q-150 65 -94.5 183t173.5 254t28 339q-105 192 -438 136.5t-431 -16.5q23 -73 -20 -178zM320 -38q16 -123 201 -127
q210 -6 218 125q-15 151 -221 142q-195 0 -198 -140z" />
    <glyph glyph-name="at" unicode="@" horiz-adv-x="1539" 
d="M803 414q5 -68 -5 -156q-133 -68 -150 83q-12 150 81 162q68 -17 74 -89zM670.5 859.5q-94.5 -19.5 -135 -25.5t-92.5 1q-4 -52 -11 -100t2 -70t41 -28.5t105 33.5q194 90 223 -45v-71q-138 113 -285 37q-146 -77 -135 -261q-2 -141 124.5 -212t289.5 57
q37 -112 202 -142t315 66.5t170 370.5q0 304 -214 494.5t-502 190.5q-285 0 -504 -190.5t-219 -494.5q10 -313 225.5 -498t434.5 -195.5t348 72.5q-191 38 -284 137q-224 -57 -385.5 100.5t-161.5 387.5q0 231 161.5 387.5t392.5 156.5q232 0 393.5 -156.5t161.5 -387.5
q-20 -230 -138.5 -228.5t-111 163t4.5 289.5q-22 123 -94.5 157t-149.5 29t-171.5 -24.5z" />
    <glyph glyph-name="A" unicode="A" horiz-adv-x="1225" 
d="M386 1040q-143 -499 -325 -894q-35 -87 -96 -147l263 1q74 -9 91 44t-20 115q-25 165 74 354h246l145 -408q47 -109 124 -111l381 -1q-326 691 -472 1257q-20 47 -72 49h-375q78 -111 36 -259zM581 665l-180 -8l80 272z" />
    <glyph glyph-name="B" unicode="B" horiz-adv-x="1170" 
d="M35 1301q70 -141 88.5 -361t-26.5 -847q-2 -68 58 -93l420 -1q-82 261 -68 688q148 -17 223 -116.5t61.5 -257.5t-206.5 -140q-5 -80 42 -178q134 -50 277.5 -6t196.5 137.5t45 212t-87.5 236.5t-311.5 192q238 106 192 334q-104 243 -452 204q-191 -13 -452 -4z
M692.5 977q-0.5 -141 -106 -142t-63.5 332q170 -49 169.5 -190z" />
    <glyph glyph-name="C" unicode="C" horiz-adv-x="1245" 
d="M47 574q5 -338 252 -504q156 -96 379 -94t368.5 93.5t184 288t-103.5 211.5l-312 -2q63 -93 33.5 -218.5t-194.5 -128.5q-162 21 -178 221l1 397q-14 275 179 289q230 -7 175 -280l300 1q147 48 50.5 254.5t-525.5 211.5q-628 -43 -609 -740z" />
    <glyph glyph-name="D" unicode="D" horiz-adv-x="1192" 
d="M511 -2q-63 201 -77.5 467t-5.5 381t19 291q152 -25 249 -222t49 -490.5t-244 -240.5q5 -99 53 -185q157 -67 310.5 16.5t249 272t31 441.5t-288 439.5t-644.5 128.5h-190q51 -111 64.5 -279t11.5 -325t-29 -331.5t-15 -268t106 -95.5h351z" />
    <glyph glyph-name="E" unicode="E" horiz-adv-x="930" 
d="M417 756q-4 -70 0 -139q101 -59 186 -110q74 -30 92 57q19 115 -2 260q-9 86 -97 53q-89 -53 -179 -121zM875 -22q16 166 42 274t-59 129.5t-171 -86t-242 -76.5q-66 215 -49 516t34 409h86q165 4 202.5 -75.5t109 -63t60.5 113.5t-7 220q-85 -61 -875 -42
q51 -111 64.5 -279t11.5 -325t-29 -331.5t-15 -268t106 -95.5h501q115 10 230 -20z" />
    <glyph glyph-name="F" unicode="F" horiz-adv-x="911" 
d="M549 -1q-126 215 -124 626t19 519h86q165 4 202.5 -75.5t109 -63t60.5 113.5t-7 220q-85 -61 -875 -42q51 -111 64.5 -279t11.5 -325t-29 -331.5t-15 -268t106 -95.5zM441 756q-4 -70 0 -139q101 -59 186 -110q74 -30 92 57q19 115 -2 260q-9 86 -97 53
q-89 -53 -179 -121z" />
    <glyph glyph-name="G" unicode="G" horiz-adv-x="1263" 
d="M59 574q5 -338 245 -504q151 -96 389 -80t358 224q18 -186 198 -213l1 518q21 178 -144 146l-456 2l-1 -139q229 27 223.5 -139t-165.5 -169q-216 21 -231 221l1 397q-14 275 174 289q223 -7 170 -280l291 1q143 48 49 254.5t-510 211.5q-610 -43 -592 -740z" />
    <glyph glyph-name="H" unicode="H" horiz-adv-x="1133" 
d="M515 -2q-63 201 -83 322t-14 201q-3 189 283 172q-1 -157 -28 -331.5t-15 -268t106 -95.5h351q-63 201 -77.5 467t4.5 436t24 228t-10 109t-80 60l-350 -1q51 -111 64 -311q-5 -155 -257 -138q28 223 33 281t-10 109t-80 60l-350 -1q51 -111 64.5 -279t11.5 -325
t-29 -331.5t-15 -268t106 -95.5h351z" />
    <glyph glyph-name="I" unicode="I" horiz-adv-x="531" 
d="M519 -2q-63 201 -77.5 467t4.5 436t24 228t-10 109t-80 60l-360 -1q51 -111 64.5 -279t11.5 -325t-29 -331.5t-15 -268t106 -95.5h361z" />
    <glyph glyph-name="J" unicode="J" horiz-adv-x="508" 
d="M-145 -312l-54 225q11 108 146 58q82 -11 137.5 29t4.5 468q-35 663 -45 705.5t1.5 80t83.5 42.5l360 1q-51 -82 -64.5 -205.5t-11.5 -260.5t42.5 -515.5t-39.5 -483.5t-192 -109t-228 2t-141 -37z" />
    <glyph glyph-name="K" unicode="K" horiz-adv-x="1078" 
d="M516 -2q-91 198 -93 674q129 4 165.5 -350t202.5 -323l310 -1q-70 55 -142 415t-343 388l418 497h-343q-82 3 -93 -43t50 -90t17 -107q-154 -245 -242 -218q1 71 20 151t24 138t-10 109t-80 60l-350 -1q51 -111 64.5 -279t11.5 -325t-29 -331.5t-15 -268t106 -95.5h351z
" />
    <glyph glyph-name="L" unicode="L" horiz-adv-x="937" 
d="M451 1134q-40 -411 -26.5 -642.5t40.5 -319.5h126q101 13 155.5 104t126 74.5t50.5 -113.5t-27 -280q-85 61 -725 42q-129 41 -95.5 244t29 489.5t-99.5 564.5l364 2q131 -1 82 -165z" />
    <glyph glyph-name="M" unicode="M" horiz-adv-x="1593" 
d="M494 -2q-64 134 -82.5 381.5t19.5 609.5q16 105 112 124.5t79 -145.5q-4 -333 -22.5 -567.5t-1.5 -322t135 -80.5l180 1l131 1q-84 120 -97.5 377t20.5 572q12 155 112.5 169.5t84.5 -150.5q1 -323 -15.5 -562.5t0.5 -327t135 -80.5l180 1l132 1q-85 120 -93.5 380.5
t35.5 683.5q2 195 -114.5 233.5t-349.5 -67.5l-107 -69q-8 98 -104.5 136.5t-339.5 -67.5l-88 -49q4 110 -63 119l-357 -1q73 -175 74.5 -432.5t-26.5 -466.5t-15.5 -304.5t108.5 -97.5h338z" />
    <glyph glyph-name="N" unicode="N" horiz-adv-x="1216" 
d="M1185 -2q-63 201 -77.5 467t4.5 436t24 228t-10 109t-80 60l-350 -1q51 -111 64.5 -279t11.5 -325t-29 -331.5t-15 -268t106 -95.5h351zM535 -2q-63 201 -77.5 467t-10.5 363t-53 238l305 -819q41 218 47 333l-223 653q-31 75 -227 65l-250 -1q51 -111 64.5 -279
t11.5 -325t-29 -331.5t-15 -268t106 -95.5h351z" />
    <glyph glyph-name="O" unicode="O" horiz-adv-x="1320" 
d="M48 574q5 -338 252 -504q156 -96 379 -94t368 101q214 139 261 472q30 755 -651 765q-628 -43 -609 -740zM866 838l1 -400q-15 -223 -212 -218q-162 21 -178 221l1 397q-14 275 179 289q230 -7 209 -289z" />
    <glyph glyph-name="P" unicode="P" horiz-adv-x="1023" 
d="M510 -2q-63 201 -77.5 467t-5.5 381t19 291q151 29 191.5 -169t-4 -291t-169.5 -39q-12 -86 16 -172q160 -84 332 12t197.5 271t-101.5 373.5t-537 175.5l-350 -1q51 -111 64.5 -279t11.5 -325t-29 -331.5t-15 -268t106 -95.5h351z" />
    <glyph glyph-name="Q" unicode="Q" horiz-adv-x="1311" 
d="M52 574q5 -338 252 -504q156 -96 328 -88q67 -390 717 -385q3 76 60.5 157t44.5 125.5t-102 37.5q-612 -130 -653 293q-202 51 -218 231l1 397q-14 275 179 289q230 -7 209 -289l1 -400q-10 -165 -130 -224q-2 -110 76 -210q440 141 495 545q30 755 -651 765
q-628 -43 -609 -740z" />
    <glyph glyph-name="R" unicode="R" horiz-adv-x="1135" 
d="M27 1301q70 -141 88.5 -361t-26.5 -847q-2 -68 58 -93l420 -1q-82 261 -68 688q77 10 133.5 -69t23.5 -442q-18 -180 203 -180l274 -1q-35 28 -56 304.5t-104.5 359t-233.5 108.5q265 65 223 341q-33 267 -483 197q-191 -13 -452 -4zM667.5 994q-0.5 -127 -96 -123
t-56.5 296q153 -46 152.5 -173z" />
    <glyph glyph-name="S" unicode="S" horiz-adv-x="1070" 
d="M44.5 1031.5q-28.5 -163.5 28.5 -240.5t135 -134.5t229.5 -120t209.5 -131t-17.5 -136t-201.5 -19t-235 163.5q-63 71 -125 49t-63 -113q53 -235 37 -309q105 6 215 -21q580 -151 758 249q96 326 -88 459q-323 140 -411 179t-104 129.5t100 100.5t256 -159
q117 -124 185 0q29 61 1.5 158t-13.5 152q-123 -21 -303.5 19t-372.5 -36t-220.5 -239.5z" />
    <glyph glyph-name="T" unicode="T" horiz-adv-x="1211" 
d="M877 -1q-126 215 -124 629t19 522h56q105 4 152.5 -75.5t119 -63t60.5 113.5t-7 220q-85 -61 -596 -54q-463 -7 -548 54q4 -123 -7 -220t60.5 -113.5t119 63t122.5 75.5h76q52 -137 47 -375.5t-32 -413t-15 -268t106 -95.5z" />
    <glyph glyph-name="U" unicode="U" 
d="M624 1301q65 -132 78 -392t-18 -665q-214 -111 -236 83q-17 324 11 561t6 328.5t-132 84.5l-180 -1l-133 -1q65 -118 83.5 -383.5t-25.5 -653.5q-14 -203 114 -250.5t373 66.5l119 38q-5 -108 62 -117l360 1q-73 173 -74.5 404.5t26 468.5t15.5 331.5t-109 96.5h-340z
" />
    <glyph glyph-name="V" unicode="V" horiz-adv-x="1104" 
d="M37 1169l176 -475q65 -219 109.5 -457.5t149.5 -238.5l259 3q-70 79 394 1300l-425 1q-66 -1 -80 -64.5t146 -152.5q68 -69 33 -235.5t-107 -241t-106 19.5l-176 598q-30 75 -91 72h-353q44 -39 71 -129z" />
    <glyph glyph-name="W" unicode="W" horiz-adv-x="1675" 
d="M67 1169l216 -595q70 -234 91 -407t115 -169l279 3q-42 304 93 522l124 -415q25 -107 99 -110l268 3q-123 144 370 1300l-422 1q-66 -1 -85.5 -52.5t21.5 -104.5q97 -86 127.5 -248.5t-26.5 -237t-121 18.5q-266 586 -52 620h-465q-70 -5 -85 -55.5t19 -110.5
q196 -215 138 -411q-64 -158 -129 -43l-153 496q-19 127 -154 124h-359q65 -39 91 -129z" />
    <glyph glyph-name="X" unicode="X" horiz-adv-x="1145" 
d="M36 1299q73 -41 328 -579q-353 -697 -390 -725l408 1q95 17 62 133q-158 255 2 383l178 -369q60 -137 168 -147h420q-39 40 -392 732q267 515 340 571h-372q-67 -27 -24 -104q96 -100 77.5 -206.5t-93.5 -102.5l-160 412z" />
    <glyph glyph-name="Y" unicode="Y" horiz-adv-x="1078" 
d="M-22 1299q73 -41 372 -583q31 -163 -45 -518q-24 -199 139 -202h350q-97 181 -82 732q327 515 400 571h-372q-67 -27 -24 -104q96 -100 47.5 -206.5t-143.5 -102.5l-230 412z" />
    <glyph glyph-name="Z" unicode="Z" horiz-adv-x="1180" 
d="M83 1310q21 -111 -14.5 -257t58.5 -155.5t267.5 141t226.5 96t11.5 -153t-152.5 -208t-218 -205.5t-158 -177t-52 -215.5t76 -199.5q32 39 136 36q630 -54 874 -4q-10 109 33.5 226t37.5 183t-87.5 59.5t-167.5 -127.5t-180.5 -155.5t-181 29t287 470.5t239.5 580
q-48 55 -460 24t-576 13z" />
    <glyph glyph-name="bracketleft" unicode="[" horiz-adv-x="438" 
d="M396.5 1547.5q107.5 -43.5 99.5 -181.5l-222 -1l-1 -1556h215q27 -112 -69.5 -164t-222.5 -17t-128 193l-1 1542q0 142 111 185t218.5 -0.5z" />
    <glyph glyph-name="backslash" unicode="\" horiz-adv-x="564" 
d="M239 1397l384 -1570q32 -124 -61.5 -151t-137.5 104l-385 1565q-35 138 66.5 161.5t133.5 -109.5z" />
    <glyph glyph-name="bracketright" unicode="]" horiz-adv-x="485" 
d="M91.5 1547.5q-107.5 -43.5 -99.5 -181.5l222 -1l1 -1556h-215q-27 -112 69.5 -164t222.5 -17t128 193l1 1542q0 142 -111 185t-218.5 -0.5z" />
    <glyph glyph-name="underscore" unicode="_" horiz-adv-x="1110" 
d="M27.5 -150q-1.5 -121 141.5 -130h758q160 -1 159.5 125.5t-161.5 125.5h-750q-146 0 -147.5 -121z" />
    <glyph glyph-name="a" unicode="a" horiz-adv-x="1008" 
d="M411 982q-122 -25 -174.5 -32.5t-120.5 1.5q-4 -68 -13.5 -130t2.5 -90.5t53 -37t136 43.5q251 117 288 -58v-92q-178 146 -368 48q-189 -99 -175 -337q-2 -183 161.5 -274.5t373.5 73.5q-6 -70 60 -98h368q-70 192 -60 400.5t6 373.5q-29 160 -122.5 203.5t-193 37
t-221.5 -31.5zM582 407q6 -89 -7 -202q-171 -88 -193 107q-16 194 104 210q88 -23 96 -115z" />
    <glyph glyph-name="b" unicode="b" horiz-adv-x="1082" 
d="M179 -2q-84 20 -80.5 110.5t23 371.5t15.5 401t-24 213t-85 204l340 -1q144 -9 116.5 -183t-21.5 -227q173 174 371.5 100.5t215.5 -392.5v-214q-38 -295 -222 -370t-340 100q-1 -45 52 -113h-361zM461 642.5q-7 -116.5 3 -334.5q56 -176 151.5 -129.5t82.5 292.5
q8 267 -42.5 327t-119.5 23q-68 -62 -75 -178.5z" />
    <glyph glyph-name="c" unicode="c" horiz-adv-x="971" 
d="M46 443q4 -263 195 -391q121 -75 294 -73.5t286 72.5t143 223.5t-80 164.5l-272 -2q48 -72 25.5 -169.5t-120.5 -99.5q-106 16 -118 172v310q-10 213 119 224q149 -5 106 -217h263q114 38 39 198t-408 164q-487 -33 -472 -576z" />
    <glyph glyph-name="d" unicode="d" horiz-adv-x="1032" 
d="M1019 -2q-63 201 -77.5 482t4.5 436t24 213t-10 109t-80 60l-350 -1q51 -111 66 -234t9 -176q-173 174 -371.5 100.5t-195.5 -392.5v-214q18 -295 202 -370t340 100q4 -100 88 -113h351zM607 642.5q7 -116.5 -14 -355.5q-45 -155 -140.5 -108.5t-82.5 292.5
q-8 267 42.5 327t119.5 23q68 -62 75 -178.5z" />
    <glyph glyph-name="e" unicode="e" horiz-adv-x="965" 
d="M40 443q4 -263 195 -391q121 -75 294 -73.5t286 72.5t143 223.5t-80 164.5l-272 -2q48 -72 25.5 -169.5t-120.5 -99.5q-106 16 -118 172v280q-10 233 119 244q129 -5 131 -206l-237 -3l2 -88l473 -1q114 39 39 239t-408 204q-487 -33 -472 -566z" />
    <glyph glyph-name="f" unicode="f" horiz-adv-x="676" 
d="M87 1024q-3 -85 -92 -80v-114q72 -12 118 -55q11 -84 -4 -263.5t-22 -299.5q-34 -163 74 -215h374q-94 215 -98.5 441.5t26.5 336.5q15 48 88 52v115q-243 29 -255 115t48 99t143 -74t142 -70t42 91q-47 116 -28 187q-58 -15 -146 5t-174 11q-211 -50 -236 -282z" />
    <glyph glyph-name="g" unicode="g" horiz-adv-x="1026" 
d="M1081 1000q-83 -142 -82.5 -464.5t9.5 -417.5t-6 -192t-165.5 -204t-393 -62.5t-316.5 19.5q-98 274 60 252q216 -65 355 -43.5t115 199.5q-122 -152 -346 -89.5t-241 434.5v184q38 295 222 370t340 -100q-19 105 78 116zM659 358q7 143 -3 331q-56 176 -151.5 129.5
t-82.5 -292.5q-8 -290 42.5 -350t119.5 -23q68 62 75 205z" />
    <glyph glyph-name="h" unicode="h" horiz-adv-x="1050" 
d="M488 -2q-63 131 -66 328t4 378q16 103 95 122t83 -143q3 -192 -14 -356.5t-0.5 -250t132.5 -78.5l176 1l129 1q-94 168 -47 777q-27 191 -166.5 228.5t-297.5 -65.5l-86 -48q5 136 19.5 216.5t-0.5 131.5t-80 60l-350 -1q51 -111 64.5 -260t11.5 -326t-29 -351.5
t-15 -268t106 -95.5h331z" />
    <glyph glyph-name="i" unicode="i" horiz-adv-x="507" 
d="M507 -3q-63 149 -77.5 366.5t4.5 343t24 168t-11.5 75t-68.5 47.5l-360 1q51 -82 64.5 -205.5t11.5 -261t-29 -266t-15 -197t106 -70.5zM463 1218q-16 123 -201 127q-210 6 -218 -125q18 -151 221 -142q195 0 198 140z" />
    <glyph glyph-name="j" unicode="j" horiz-adv-x="528" 
d="M-158 -362l-54 225q11 108 146 58q82 -11 137.5 29t34.5 218q-35 663 -45 705.5t1.5 80t83.5 42.5l360 1q-51 -82 -64.5 -205.5t-11.5 -260.5t27.5 -390.5t-54.5 -358.5t-192 -109t-228 2t-141 -37zM461 1218q-16 123 -201 127q-210 6 -218 -125q18 -151 221 -142
q195 0 198 140z" />
    <glyph glyph-name="k" unicode="k" horiz-adv-x="1013" 
d="M503 -2q-91 198 -92 545q128 -17 149.5 -296t187.5 -248l300 -1q-70 55 -127 340t-318 293l418 367h-343q-82 3 -93 -43t25 -75t-8 -92q-87 -99 -192 -87q1 80 20 250t24 228t-10 109t-80 60l-350 -1q51 -111 64.5 -279t11.5 -325t-29 -356.5t-15 -293t106 -95.5h351z
" />
    <glyph glyph-name="l" unicode="l" horiz-adv-x="540" 
d="M517 -2q-63 201 -77.5 467t4.5 436t24 228t-10 109t-80 60l-350 -1q51 -111 64.5 -279t11.5 -325t-29 -331.5t-15 -268t106 -95.5h351z" />
    <glyph glyph-name="m" unicode="m" horiz-adv-x="1615" 
d="M514 -2q-65 135 -68 338.5t4 349.5q17 106 98.5 125.5t85.5 -147.5q3 -157 -14.5 -327t-0.5 -258t137 -81l182 1l133 2q-86 120 -58 685q12 106 93.5 125.5t85.5 -147.5q3 -157 -14.5 -327t-0.5 -258t137 -81l182 1l133 2q-86 120 -59 760q-28 197 -167 236t-302 -67
l-108 -71q-9 99 -147.5 138t-302.5 -67l-88 -50q4 110 -63 120l-362 -1q73 -177 74.5 -311t-26 -314.5t-15.5 -277t110 -98.5h341z" />
    <glyph glyph-name="n" unicode="n" horiz-adv-x="1081" 
d="M512 -2q-65 135 -68 338.5t4 349.5q17 106 98.5 125.5t85.5 -147.5q3 -157 -14.5 -327t-0.5 -258t137 -81l182 1l133 2q-86 120 -59 760q-28 197 -167 236t-302 -67l-89 -50q5 110 -63 120l-361 -1q73 -177 74.5 -311t-26 -314.5t-15.5 -277t110 -98.5h341z" />
    <glyph glyph-name="o" unicode="o" horiz-adv-x="1018" 
d="M46 459q4 -286 191 -412q118 -73 286.5 -71.5t279.5 76.5q162 106 197 388q23 572 -493 580q-476 -33 -461 -561zM626 659v-333q-11 -169 -120 -165q-83 16 -95 167l1 331q-11 209 95 219q134 -5 119 -219z" />
    <glyph glyph-name="p" unicode="p" horiz-adv-x="995" 
d="M5 1000q63 -201 77.5 -484t-4.5 -453t-24 -228t10 -109t80 -60l350 1q-51 111 -66 249t-9 191q173 -174 371.5 -100.5t195.5 426.5v184q-18 295 -202 370t-340 -100q-4 100 -88 113h-351zM417 368.5q-7 133.5 14 342.5q45 155 140.5 108.5t82.5 -292.5q8 -271 -42.5 -331
t-119.5 -23q-68 62 -75 195.5z" />
    <glyph glyph-name="q" unicode="q" horiz-adv-x="1014" 
d="M899 1000q84 -20 80.5 -110.5t-13 -383.5t-5.5 -413t24 -228t85 -219l-360 1q-144 9 -116.5 198t21.5 242q-173 -174 -371.5 -100.5t-215.5 392.5v238q38 295 222 370t340 -100q1 45 -52 113h361zM617 358.5q7 143.5 -3 331.5q-56 176 -151.5 129.5t-82.5 -292.5
q-8 -291 42.5 -351t119.5 -23q68 62 75 205.5z" />
    <glyph glyph-name="r" unicode="r" horiz-adv-x="835" 
d="M532 -3q-83 149 -97.5 366.5t7.5 310.5q60 227 226 44l198 197q-100 119 -198 90.5t-204 -158.5q4 70 -12.5 102.5t-68.5 47.5l-360 1q51 -82 64.5 -205.5t11.5 -261t-29 -266t-15 -197t106 -70.5z" />
    <glyph glyph-name="s" unicode="s" horiz-adv-x="892" 
d="M60.5 789q-24.5 -125 23.5 -202.5t114 -125.5t176.5 -92t142.5 -77t2 -66t-136 -15t-197 169q-54 53 -106 36.5t-53 -85.5q44 -242 31 -299q88 5 181 -16q489 -115 638 191q81 249 -74 350q-272 107 -329 137t-66 80t67.5 57.5t193.5 -106.5q99 -94 157 0
q23 47 0.5 132.5t-11.5 128.5q-104 -17 -255.5 13.5t-313 -27.5t-186 -183z" />
    <glyph glyph-name="t" unicode="t" horiz-adv-x="823" 
d="M59 953q-43 -24 -38 -89.5t52 -81.5l128 1q15 -154 12.5 -239.5t-25.5 -206t3.5 -207.5t207.5 -133t393 111q51 85 -5 124q-248 -5 -231 327l1 223h199q64 15 62.5 114t-75.5 102h-185l1 162q-12 55 -79.5 60.5t-111.5 -45.5q-98 -155 -309 -222z" />
    <glyph glyph-name="u" unicode="u" horiz-adv-x="1013" 
d="M541 999q63 -134 66 -336t-4 -347q-16 -106 -100 -125.5t-108 147.5q-3 155 19 325.5t5.5 258t-132.5 77.5h-285q83 -119 47 -758q27 -198 166.5 -236.5t297.5 67.5l86 51q-4 -115 61 -124l380 1q-71 181 -77.5 314t5.5 312t0 275t-106 98h-321z" />
    <glyph glyph-name="v" unicode="v" horiz-adv-x="992" 
d="M20 898l165 -363q61 -169 102.5 -353t139.5 -184l242 2q-66 61 368 1000l-397 1q-62 -1 -80.5 -40.5t20.5 -80.5q91 -67 119.5 -190.5t-25 -181t-113.5 14.5l-164 419q-28 58 -85 56h-358q41 -30 66 -100z" />
    <glyph glyph-name="w" unicode="w" horiz-adv-x="1606" 
d="M80 898l203 -455q66 -181 85.5 -314.5t108.5 -130.5l262 2q-39 235 88 403l116 -320q24 -83 94 -85l252 2q-116 111 348 1000l-397 1q-62 -1 -80.5 -40.5t20.5 -80.5q91 -67 119.5 -190.5t-25 -181t-113.5 14.5q-250 449 -49 475h-438q-66 -4 -80 -43t18 -85
q185 -166 130 -314q-60 -122 -121 -33l-144 379q-18 98 -145 96h-338q61 -30 86 -100z" />
    <glyph glyph-name="x" unicode="x" horiz-adv-x="1054" 
d="M52 1001q63 -32 282 -445q-303 -536 -335 -558l351 1q81 13 53 102q-136 196 2 295l153 -284q51 -106 144 -113h361q-34 31 -337 563q230 396 292 439h-319q-58 -21 -21 -80q82 -77 66.5 -159t-80.5 -79l-137 317z" />
    <glyph glyph-name="y" unicode="y" horiz-adv-x="1002" 
d="M1091 1000q-83 -144 -82.5 -465.5t9.5 -416.5t-6 -192t-165.5 -204t-393 -62.5t-316.5 19.5q-98 274 60 252q216 -65 355 -43.5t115 199.5q-122 -152 -336 -89.5t-231 432.5v184q8 375 164 383l302 1q-79 -67 -103 -147.5t-27 -320.5q8 -294 58.5 -354t99.5 -23
q68 62 75 204t-3 330q-43 302 54 313h371z" />
    <glyph glyph-name="z" unicode="z" horiz-adv-x="1018" 
d="M71 1013q18 -85 -12.5 -197.5t50 -120t214.5 108.5t180 74t10 -118t-131.5 -160t-187 -158t-120.5 -136.5t-30 -166t65 -153.5q28 30 117 28q542 -42 751 -3q-8 84 29 174t32 140.5t-75 45.5t-144 -98t-140 -119.5t-140.5 22.5t231.5 362t191 447q-41 42 -395 18t-495 10
z" />
    <glyph glyph-name="braceleft" unicode="{" horiz-adv-x="601" 
d="M708 1377.5q-4 -41.5 -64 -43.5q-168 -13 -195.5 -324.5t-187.5 -416.5q161 -90 172.5 -411t189.5 -374q89 4 89 -56.5t-89 -48.5q-353 56 -444 449.5t-176 448.5q91 56 181 430.5t449 390.5q79 -3 75 -44.5z" />
    <glyph glyph-name="bar" unicode="|" horiz-adv-x="333" 
d="M59 1435l2 -1696q-1 -128 96.5 -131.5t108.5 134.5v1691q0 143 -104 141t-103 -139z" />
    <glyph glyph-name="braceright" unicode="}" horiz-adv-x="647" 
d="M9 1377.5q4 -41.5 64 -43.5q168 -13 195.5 -324.5t187.5 -416.5q-161 -90 -172.5 -411t-189.5 -374q-89 4 -89 -56.5t89 -48.5q353 56 444 449.5t176 448.5q-91 56 -181 430.5t-449 390.5q-79 -3 -75 -44.5z" />
    <glyph glyph-name="Ccedilla" unicode="&#xc7;" horiz-adv-x="1250" 
d="M538 29l-37 -169q2 -23 28 -26q138 7 152 -30.5t12.5 -84.5t-33.5 -48.5t-41 44.5t16 83l-126 -1q-27 -7 -27.5 -53.5t29.5 -84.5t89.5 -46.5t114.5 4t92 54.5t24.5 107t-68 88.5t-134.5 13.5l39 150zM55 574q5 -338 252 -504q156 -96 379 -94t368.5 93.5t184 288
t-103.5 211.5l-312 -2q63 -93 33.5 -218.5t-194.5 -128.5q-162 21 -178 221l1 397q-14 275 179 289q230 -7 175 -280l300 1q147 48 50.5 254.5t-525.5 211.5q-628 -43 -609 -740z" />
    <glyph glyph-name="ccedilla" unicode="&#xe7;" horiz-adv-x="967" 
d="M409 29l-37 -169q2 -23 28 -26q138 7 152 -30.5t12.5 -84.5t-33.5 -48.5t-41 44.5t16 83l-126 -1q-27 -7 -27.5 -53.5t29.5 -84.5t89.5 -46.5t114.5 4t92 54.5t24.5 107t-68 88.5t-134.5 13.5l39 150zM46 443q4 -263 195 -391q121 -75 294 -73.5t286 72.5t143 223.5
t-80 164.5l-272 -2q48 -72 25.5 -169.5t-120.5 -99.5q-106 16 -118 172v310q-10 213 119 224q149 -5 106 -217h263q114 38 39 198t-408 164q-487 -33 -472 -576z" />
    <glyph glyph-name="degree" unicode="&#xb0;" horiz-adv-x="661" 
d="M103 1252q-58 -147 -25 -339q72 -193 273 -195q229 -1 294 189q29 173 -15 342q-60 225 -265 217q-188 2 -262 -214zM424 1225l2 -307q-11 -77 -69 -81q-62 18 -60 85l-1 304q4 123 65 128q58 -1 63 -129z" />
    <glyph glyph-name="cent" unicode="&#xa2;" horiz-adv-x="990" 
d="M590 1177l-304 -1410q-32 -124 61.5 -151t137.5 104l305 1405q35 138 -66.5 161.5t-133.5 -109.5zM51 443q4 -263 195 -391q121 -75 294 -73.5t286 72.5t143 223.5t-80 164.5l-272 -2q48 -72 25.5 -169.5t-120.5 -99.5q-106 16 -118 172v310q-10 213 119 224
q149 -5 106 -217h263q114 38 39 198t-408 164q-487 -33 -472 -576z" />
    <glyph glyph-name="sterling" unicode="&#xa3;" horiz-adv-x="959" 
d="M162 696h-50q-88 2 -88 -109t86 -113l52 -2q18 -239 -60 -316l120 -160q548 30 628 -24q-15 95 75 238q35 97 -41 128t-126 -70t-268 -60q58 117 32 268l91 1q86 -1 89.5 109t-98.5 109l-86 1q-54 395 96 396q85 4 121.5 -58.5t80.5 -66.5t78 81l36 236
q-100 -50 -314.5 -5t-362 -70.5t-91.5 -512.5z" />
    <glyph glyph-name="bullet" unicode="&#x2022;" horiz-adv-x="786" 
d="M369 223q-51 -66 -116 6l-110 137l-107 136l106 133l104 131q68 87 122 18.5t-15 -154.5l-102 -129l107 -134q62 -78 11 -144zM433 223q51 -66 116 6l110 137l107 136l-106 133l-104 131q-68 87 -121.5 18.5t15.5 -154.5l102 -129l-107 -134q-63 -78 -12 -144zM292 502
q8 -65 106 -67q111 -3 115 66q-9 79 -117 74q-102 0 -104 -73z" />
    <glyph glyph-name="registered" unicode="&#xae;" horiz-adv-x="788" 
d="M30 873q3 -201 150 -300q93 -58 226 -56.5t219 60.5q128 83 156 281q18 450 -388 456q-375 -26 -363 -441zM666 1042l1 -307q-20 -171 -284 -167q-217 16 -238 170l1 304q-19 211 240 222q308 -5 280 -222zM204 1153q26 -52 32.5 -133.5t-9.5 -314.5q-1 -25 21 -34h156
q-31 96 -26 255q29 3 50 -26t9 -164q-7 -66 75 -66l101 -1q-13 11 -20.5 113t-38.5 133t-87 40q98 24 83 127q-12 99 -179 73q-71 -5 -167 -2zM441 1039q0 -47 -35.5 -45.5t-21.5 110.5q57 -18 57 -65z" />
    <glyph glyph-name="copyright" unicode="&#xa9;" horiz-adv-x="805" 
d="M35 871q3 -202 150 -301q93 -58 226.5 -56.5t220.5 60.5q128 83 156 282q18 452 -389 458q-376 -26 -364 -443zM672 1041l2 -308q-21 -171 -285 -168q-218 17 -239 171l1 305q-19 212 241 223q308 -6 280 -223zM186 885q2 -125 92 -185q57 -36 139 -35t135 34.5
t67.5 105.5t-37.5 78l-129 -1q23 -34 12.5 -80t-57.5 -47q-50 7 -55 81v147q-5 100 56 106q70 -3 50 -103h124q54 18 18.5 93.5t-192.5 77.5q-230 -15 -223 -272z" />
    <glyph glyph-name="trademark" unicode="&#x2122;" horiz-adv-x="1426" 
d="M472 516q-62 132 -61 387t9 322h28q52 2 76 -47t59.5 -38.5t30 70t-3.5 135.5q-42 -38 -297 -33q-231 -5 -274 33q2 -76 -3.5 -135.5t30 -70t59.5 38.5t61 47h38q26 -85 23.5 -231.5t-16 -254t-7.5 -165.5t53 -59zM857 515q-32 83 -41.5 235.5t9.5 375.5q8 64 56 76
t40 -89q-2 -205 -11.5 -349.5t-1 -198.5t67.5 -50l90 1h65q-42 74 -48.5 232.5t10.5 352.5q6 96 56 104.5t42 -92.5q1 -199 -7.5 -346.5t0 -201.5t67.5 -50l90 1h66q-42 74 -46.5 234.5t17.5 421.5q1 120 -57 143.5t-175 -41.5l-53 -42q-4 60 -52 83.5t-170 -41.5l-44 -30
q2 68 -31 73h-178q36 -108 37 -266.5t-13 -287.5t-8 -188t54 -60h169z" />
    <glyph glyph-name="AE" unicode="&#xc6;" horiz-adv-x="1689" 
d="M390 1040q-143 -499 -325 -894q-35 -87 -96 -147l263 1q74 -9 91 44t-20 115q-25 165 74 354h246l145 -408q47 -109 124 -111l381 -1q-326 691 -472 1257q-20 47 -72 49h-375q78 -111 36 -259zM585 665l-180 -8l80 272zM1170 796q-4 -70 0 -139q101 -59 186 -110
q74 -30 92 57q19 115 -2 260q-9 86 -97 53q-89 -53 -179 -121zM1628 -22q16 166 42 274t-59 129.5t-171 -86t-242 -76.5q-66 215 -49 516t34 409h86q165 4 202.5 -75.5t109 -63t60.5 113.5t-7 220q-85 -61 -875 -42q51 -111 64.5 -279t11.5 -325t-29 -331.5t-15 -268
t106 -95.5h501q115 10 230 -20z" />
    <glyph glyph-name="yen" unicode="&#xa5;" horiz-adv-x="1217" 
d="M46 1299q73 -41 372 -583q31 -163 -45 -518q-24 -199 139 -202h350q-97 181 -82 732q327 515 400 571h-372q-67 -27 -24 -104q96 -100 47.5 -206.5t-143.5 -102.5l-230 412zM1068 825h-906q-128 1 -131.5 -96.5t134.5 -108.5l901 1q143 -1 141 103t-139 101zM1068 565
h-906q-128 1 -131.5 -96.5t134.5 -108.5l901 1q143 -1 141 103t-139 101z" />
    <glyph glyph-name="ae" unicode="&#xe6;" horiz-adv-x="1523" 
d="M419 982q-122 -25 -174.5 -32.5t-120.5 1.5q-4 -68 -13.5 -130t2.5 -90.5t53 -37t136 43.5q251 117 288 -58v-92q-178 146 -368 48q-189 -99 -175 -337q-2 -183 161.5 -274.5t373.5 73.5q-6 -70 60 -98h368q-70 192 -60 400.5t6 373.5q-29 160 -122.5 203.5t-193 37
t-221.5 -31.5zM590 407q6 -89 -7 -202q-171 -88 -193 107q-16 194 104 210q88 -23 96 -115zM608 443q4 -263 195 -391q121 -75 294 -73.5t286 72.5t143 223.5t-80 164.5l-272 -2q48 -72 25.5 -169.5t-120.5 -99.5q-106 16 -118 172v280q-10 233 119 244q129 -5 131 -206
l-237 -3l2 -88l473 -1q114 39 39 239t-408 204q-487 -33 -472 -566z" />
    <glyph glyph-name="ellipsis" unicode="&#x2026;" horiz-adv-x="1339" 
d="M25 112q16 -123 201 -127q210 -6 218 125q-18 151 -221 142q-195 0 -198 -140zM465 112q16 -123 201 -127q210 -6 218 125q-18 151 -221 142q-195 0 -198 -140zM915 112q16 -123 201 -127q210 -6 218 125q-18 151 -221 142q-195 0 -198 -140z" />
    <glyph glyph-name="OE" unicode="&#x152;" horiz-adv-x="1825" 
d="M34 574q5 -338 252 -504q156 -96 379 -94t368 101q214 139 261 472q30 755 -651 765q-628 -43 -609 -740zM852 838l1 -400q-15 -223 -212 -218q-162 21 -178 221l1 397q-14 275 179 289q230 -7 209 -289zM1326 756q-4 -70 0 -139q101 -59 186 -110q74 -30 92 57
q19 115 -2 260q-9 86 -97 53q-89 -53 -179 -121zM1784 -22q16 166 42 274t-59 129.5t-171 -86t-242 -76.5q-66 215 -49 516t34 409h86q165 4 202.5 -75.5t109 -63t60.5 113.5t-7 220q-85 -61 -875 -42q51 -111 64.5 -279t11.5 -325t-29 -331.5t-15 -268t106 -95.5h501
q115 10 230 -20z" />
    <glyph glyph-name="oe" unicode="&#x153;" horiz-adv-x="1570" 
d="M49 459q4 -286 191 -412q118 -73 286.5 -71.5t279.5 76.5q162 106 197 388q23 572 -493 580q-476 -33 -461 -561zM629 659v-333q-11 -169 -120 -165q-83 16 -95 167l1 331q-11 209 95 219q134 -5 119 -219zM653 443q4 -263 195 -391q121 -75 294 -73.5t286 72.5
t143 223.5t-80 164.5l-272 -2q48 -72 25.5 -169.5t-120.5 -99.5q-106 16 -118 172v280q-10 233 119 244q129 -5 131 -206l-237 -3l2 -88l473 -1q114 39 39 239t-408 204q-487 -33 -472 -566z" />
    <glyph glyph-name="quotedblleft" unicode="&#x201c;" horiz-adv-x="790" 
d="M442 1096q-10 134 -239 118q36 49 170 50q51 97 -78 85q-138 -12 -207 -84.5t-65 -166.5q18 -151 221 -142q195 0 198 140zM782 1096q-10 134 -239 118q36 49 170 50q51 97 -78 85q-138 -12 -207 -84.5t-65 -166.5q18 -151 221 -142q195 0 198 140z" />
    <glyph glyph-name="quotedblright" unicode="&#x201d;" horiz-adv-x="791" 
d="M362 1208q10 -134 239 -118q-36 -49 -170 -50q-51 -97 78 -85q138 12 207 84.5t65 166.5q-18 151 -221 142q-195 0 -198 -140zM22 1208q10 -134 239 -118q-36 -49 -170 -50q-51 -97 78 -85q138 12 207 84.5t65 166.5q-18 151 -221 142q-195 0 -198 -140z" />
    <glyph glyph-name="quoteleft" unicode="&#x2018;" horiz-adv-x="449" 
d="M441 1096q-10 134 -239 118q36 49 170 50q51 97 -78 85q-138 -12 -207 -84.5t-65 -166.5q18 -151 221 -142q195 0 198 140z" />
    <glyph glyph-name="quoteright" unicode="&#x2019;" horiz-adv-x="450" 
d="M18 1208q10 -134 239 -118q-36 -49 -170 -50q-51 -97 78 -85q138 12 207 84.5t65 166.5q-18 151 -221 142q-195 0 -198 -140z" />
    <glyph glyph-name="divide" unicode="&#xf7;" horiz-adv-x="1109" 
d="M39.5 670q-1.5 -121 141.5 -130h748q160 -1 159.5 125.5t-161.5 125.5h-740q-146 0 -147.5 -121zM351 355q16 -123 201 -127q210 -6 218 125q-18 151 -221 142q-195 0 -198 -140zM351 965q16 -123 201 -127q210 -6 218 125q-18 151 -221 142q-195 0 -198 -140z" />
    <glyph glyph-name="periodcentered" unicode="&#xb7;" horiz-adv-x="512" 
d="M49 622q16 -123 201 -127q210 -6 218 125q-18 151 -221 142q-195 0 -198 -140z" />
    <glyph glyph-name="periodcentered" unicode="&#x2219;" horiz-adv-x="512" 
d="M49 622q16 -123 201 -127q210 -6 218 125q-18 151 -221 142q-195 0 -198 -140z" />
    <glyph glyph-name="minus" unicode="&#xad;" horiz-adv-x="1106" 
d="M47.5 530q-1.5 -121 141.5 -130h748q160 -1 159.5 125.5t-161.5 125.5h-740q-146 0 -147.5 -121z" />
    <glyph glyph-name="minus" unicode="&#x2212;" horiz-adv-x="1106" 
d="M47.5 530q-1.5 -121 141.5 -130h748q160 -1 159.5 125.5t-161.5 125.5h-740q-146 0 -147.5 -121z" />
    <glyph glyph-name="multiply" unicode="&#xd7;" horiz-adv-x="872" 
d="M117.5 314.5q84.5 -86.5 191.5 7.5l182 181l177 -177q103 -103 189.5 -18.5t-8.5 191.5l-181 182l188 188q104 104 15.5 192t-187.5 -12l-192 -193l-172 172q-112 114 -201 24t25 -203l169 -170l-177 -175q-103 -103 -18.5 -189.5z" />
    <glyph glyph-name="onesuperior" unicode="&#xb9;" horiz-adv-x="405" 
d="M221 1470q-59 -78 -129 -71q-67 -2 -70.5 -42t6.5 -62t46 -25h58l-18 -438q-10 -62 1 -89t57 -26h213q-45 166 -45.5 393t20.5 359z" />
    <glyph glyph-name="twosuperior" unicode="&#xb2;" horiz-adv-x="638" 
d="M180.5 1456.5q-89.5 -23.5 -129 -91.5t-7 -115.5t84.5 -47.5l148 2q-56 69 -29 124.5t80 34.5t40.5 -97.5t-91.5 -119.5t-144.5 -92t-94 -94.5t-29 -120.5t42.5 -111q18 22 76 20q352 -30 426 -2q-6 34 35.5 104t31.5 106t-46 40t-68.5 -24t-76 -85t-115.5 -19
q-8 37 21.5 77.5t73.5 77.5t101.5 95.5t67.5 133.5t-23 119t-83 71t-126.5 32.5t-166 -18z" />
    <glyph glyph-name="threesuperior" unicode="&#xb3;" horiz-adv-x="647" 
d="M69.5 1262.5q31.5 -39.5 70 0t70 63t83.5 25.5t58 -42t-117 -138q-22 -21 -13 -45t36 -26q127 -9 129 -142.5t-49.5 -143t-72 69t25.5 164.5h-155q-66 2 -90 -38.5t-3.5 -126.5t94.5 -125.5t163.5 -42.5t172 24.5t126 98.5t31.5 179.5t-173 147.5l138 179l-42 111
q-65 12 -236 2t-229 4q-49 -159 -17.5 -198.5z" />
    <glyph glyph-name="onehalf" unicode="&#xbd;" horiz-adv-x="1305" 
d="M625 1297l-364 -1290q-32 -124 61.5 -151t137.5 104l365 1285q35 138 -66.5 161.5t-133.5 -109.5zM221 1300q-59 -78 -129 -71q-67 -2 -70.5 -42t6.5 -62t46 -25h58l-18 -438q-10 -62 1 -89t57 -26h213q-45 166 -45.5 393t20.5 359zM835.5 730.5q-92.5 -24.5 -133.5 -95
t-7 -119.5t87 -49l154 1q-58 72 -30.5 129.5t83 35.5t42.5 -101t-95.5 -123.5t-150 -95.5t-97 -97.5t-30 -124t44.5 -115.5q18 23 78 21q364 -31 442 -3q-6 36 36.5 108.5t32.5 109.5t-47.5 41t-71 -24.5t-78.5 -87.5t-120 -21q-9 39 21.5 81t76.5 80t105.5 99t70 138.5
t-24 122.5t-86 73.5t-131 34.5t-172 -18.5z" />
    <glyph glyph-name="onequarter" unicode="&#xbc;" horiz-adv-x="1254" 
d="M628 1297l-364 -1290q-32 -124 61.5 -151t137.5 104l365 1285q35 138 -66.5 161.5t-133.5 -109.5zM224 1300q-59 -78 -129 -71q-67 -2 -70.5 -42t6.5 -62t46 -25h58l-18 -438q-10 -62 1 -89t57 -26h213q-45 166 -45.5 393t20.5 359zM953 276l-150 -1l127 148
q-3 24 -7 110.5t-36 155.5l-288 -387l68 -148h270l-9 -78q-3 -58 51 -77l227 1q-47 94 -39 154h76q39 9 37.5 66t-42.5 58h-79q-8 243 15 389q16 71 -51 76l-214 -1q60 -166 44 -466z" />
    <glyph glyph-name="threequarters" unicode="&#xbe;" horiz-adv-x="1466" 
d="M837 1297l-364 -1290q-32 -124 61.5 -151t137.5 104l365 1285q35 138 -66.5 161.5t-133.5 -109.5zM1152 276l-150 -1l127 148q-3 24 -7 110.5t-36 155.5l-288 -387l68 -148h270l-9 -78q-3 -58 51 -77l227 1q-47 94 -39 154h76q39 9 37.5 66t-42.5 58h-79q-8 243 15 389
q16 71 -51 76l-214 -1q60 -166 44 -466zM66.5 1102.5q31.5 -39.5 70 0t70 63t83.5 25.5t58 -42t-117 -138q-22 -21 -13 -45t36 -26q127 -9 129 -142.5t-49.5 -143t-72 69t25.5 164.5h-155q-66 2 -90 -38.5t-3.5 -126.5t94.5 -125.5t163.5 -42.5t172 24.5t126 98.5
t31.5 179.5t-173 147.5l138 179l-42 111q-65 12 -236 2t-229 4q-49 -159 -17.5 -198.5z" />
    <glyph glyph-name="Euro" unicode="~" horiz-adv-x="1250" 
d="M43 574q5 -338 252 -504q156 -96 379 -94t368.5 93.5t184 288t-103.5 211.5l-312 -2q63 -93 33.5 -218.5t-194.5 -128.5q-162 21 -178 221l1 397q-14 275 179 289q230 -7 175 -280l300 1q147 48 50.5 254.5t-525.5 211.5q-628 -43 -609 -740zM-215 796.5
q-2 -84.5 126 -91.5h763q132 0 131.5 88.5t-133.5 87.5h-753q-132 0 -134 -84.5zM-215 566.5q-2 -84.5 126 -91.5h763q132 0 131.5 88.5t-133.5 87.5h-753q-132 0 -134 -84.5z" />
    <glyph glyph-name="Euro" unicode="&#x20ac;" horiz-adv-x="1250" 
d="M43 574q5 -338 252 -504q156 -96 379 -94t368.5 93.5t184 288t-103.5 211.5l-312 -2q63 -93 33.5 -218.5t-194.5 -128.5q-162 21 -178 221l1 397q-14 275 179 289q230 -7 175 -280l300 1q147 48 50.5 254.5t-525.5 211.5q-628 -43 -609 -740zM-215 796.5
q-2 -84.5 126 -91.5h763q132 0 131.5 88.5t-133.5 87.5h-753q-132 0 -134 -84.5zM-215 566.5q-2 -84.5 126 -91.5h763q132 0 131.5 88.5t-133.5 87.5h-753q-132 0 -134 -84.5z" />
    <glyph glyph-name="glyph125" horiz-adv-x="1063" 
d="M482 -2q-65 132 -78 392t18 665q234 131 216 -83q17 -324 -21 -561t-16 -328.5t142 -84.5l180 1l133 1q-65 118 -83.5 383.5t25.5 683.5q24 193 -94 230.5t-393 -76.5l-89 -38q5 108 -62 117l-360 -1q73 -173 74.5 -404.5t-26 -468.5t-15.5 -331.5t109 -96.5h340z" />
    </font>
</defs>
</svg>
